<svg width="24" height="24" viewBox="0 0 24 24" fill="none" xmlns="http://www.w3.org/2000/svg">
<path d="M7.95 4C10.5179 4 12 6.15234 12 6.15234C12 6.15234 13.485 4 16.05 4C18.705 4 21 6.07 21 8.95C21 13.1805 14.5604 17.6197 12.3651 19.5603C12.1582 19.7432 11.8418 19.7432 11.6349 19.5603C9.44056 17.6209 3 13.1803 3 8.95C3 6.07 5.295 4 7.95 4Z" fill="white" fill-opacity="0.6"/>
<path d="M3 8.86486C3 6.20297 5.15017 4 7.86486 4C9.98685 4 11.3592 5.35876 12 6.18673C12.6408 5.35876 14.0132 4 16.1351 4C18.8506 4 21 6.20302 21 8.86486C21 10.0299 20.5328 11.1862 19.8534 12.265C19.1716 13.3476 18.252 14.3903 17.29 15.3377C15.9567 16.6508 14.4757 17.8387 13.4134 18.6907C12.9618 19.0529 12.5859 19.3544 12.3293 19.579C12.1407 19.7439 11.8593 19.7439 11.6707 19.579C11.4141 19.3544 11.0381 19.0529 10.5866 18.6907C9.52431 17.8387 8.04326 16.6508 6.70997 15.3377C5.74802 14.3903 4.82836 13.3476 4.14659 12.265C3.46724 11.1862 3 10.0299 3 8.86486ZM7.86486 5C5.70929 5 4 6.74838 4 8.86486C4 9.76743 4.36553 10.7361 4.99277 11.7321C5.61759 12.7242 6.47833 13.706 7.41165 14.6252C8.71033 15.9042 10.0842 17.005 11.134 17.8461C11.4573 18.1052 11.7499 18.3396 12 18.547C12.2501 18.3396 12.5427 18.1052 12.866 17.8461C13.9158 17.005 15.2897 15.9042 16.5883 14.6252C17.5217 13.706 18.3824 12.7242 19.0072 11.7321C19.6345 10.7361 20 9.76743 20 8.86486C20 6.74833 18.2914 5 16.1351 5C14.0406 5 12.8181 6.70211 12.5033 7.21028C12.2727 7.5825 11.7273 7.58249 11.4967 7.21027C11.1819 6.7021 9.95944 5 7.86486 5Z" fill="#1F2026"/>
</svg>