<svg width="32" height="32" viewBox="0 0 32 32" fill="none" xmlns="http://www.w3.org/2000/svg">
<g clip-path="url(#clip0_1_26924)">
<path d="M16 0C29.3333 0 32 2.66667 32 16C32 29.3333 29.3333 32 16 32C2.66667 32 0 29.3333 0 16C0 2.66667 2.66667 0 16 0Z" fill="url(#paint0_linear_1_26924)"/>
<path fill-rule="evenodd" clip-rule="evenodd" d="M15.9998 8.34762C18.4921 8.34762 18.787 8.35728 19.7714 8.40208C20.6812 8.44355 21.1754 8.59548 21.5044 8.72328C21.9402 8.89262 22.251 9.09488 22.5777 9.42128C22.9045 9.74802 23.1068 10.0589 23.2757 10.4945C23.4035 10.8235 23.5554 11.3177 23.5969 12.2277C23.6418 13.2117 23.6514 13.5069 23.6514 15.9991C23.6514 18.4914 23.6418 18.7863 23.5969 19.7707C23.5554 20.6805 23.4035 21.1747 23.2757 21.5037C23.1064 21.9395 22.9041 22.2503 22.5777 22.577C22.251 22.9038 21.9402 23.1061 21.5044 23.275C21.1754 23.4028 20.6812 23.5548 19.7714 23.5962C18.7874 23.6411 18.4921 23.6507 15.9998 23.6507C13.5076 23.6507 13.2124 23.6411 12.2284 23.5962C11.3184 23.5548 10.8242 23.4028 10.4952 23.275C10.0596 23.1058 9.74869 22.9034 9.42195 22.577C9.09522 22.2503 8.89289 21.9395 8.72395 21.5037C8.59615 21.1747 8.44422 20.6805 8.40275 19.7707C8.35795 18.7867 8.34829 18.4914 8.34829 15.9991C8.34829 13.5069 8.35795 13.212 8.40275 12.2277C8.44422 11.3177 8.59615 10.8235 8.72395 10.4945C8.89329 10.0589 9.09555 9.74802 9.42195 9.42128C9.74869 9.09455 10.0596 8.89222 10.4952 8.72328C10.8242 8.59548 11.3184 8.44355 12.2284 8.40208C13.2127 8.35728 13.5076 8.34762 15.9998 8.34762ZM15.9998 6.66602C13.465 6.66602 13.1472 6.67675 12.1516 6.72235C11.1584 6.76755 10.48 6.92535 9.88615 7.15615C9.27229 7.39475 8.75175 7.71375 8.23309 8.23275C7.71442 8.75148 7.39502 9.27195 7.15682 9.88548C6.92602 10.4793 6.76822 11.1577 6.72302 12.1509C6.67742 13.1465 6.66669 13.4643 6.66669 15.9991C6.66669 18.534 6.67742 18.8519 6.72302 19.8473C6.76822 20.8406 6.92602 21.5189 7.15682 22.1128C7.39542 22.7267 7.71442 23.2472 8.23342 23.7659C8.75249 24.2849 9.27262 24.604 9.88655 24.8426C10.48 25.0734 11.1588 25.2311 12.152 25.2764C13.1475 25.3219 13.4654 25.3327 16.0002 25.3327C18.535 25.3327 18.8529 25.3219 19.8484 25.2764C20.8416 25.2311 21.5204 25.0734 22.1139 24.8426C22.7278 24.604 23.2483 24.2849 23.767 23.7659C24.286 23.2469 24.605 22.7267 24.8436 22.1128C25.0744 21.5194 25.2322 20.8406 25.2774 19.8473C25.323 18.8519 25.3338 18.534 25.3338 15.9991C25.3338 13.4643 25.323 13.1465 25.2774 12.1509C25.2322 11.1577 25.0744 10.479 24.8436 9.88548C24.605 9.27162 24.286 8.75108 23.767 8.23242C23.2479 7.71335 22.7278 7.39435 22.1139 7.15582C21.5196 6.92535 20.8413 6.76755 19.848 6.72235C18.8526 6.67675 18.5347 6.66602 15.9998 6.66602ZM15.9998 11.2066C13.3528 11.2066 11.2073 13.3525 11.2073 15.9991C11.2073 18.6459 13.3532 20.7917 15.9998 20.7917C18.6466 20.7917 20.7924 18.6459 20.7924 15.9991C20.7924 13.3525 18.6469 11.2066 15.9998 11.2066ZM15.9998 19.1101C14.2816 19.1101 12.8889 17.7171 12.8889 15.9991C12.8889 14.2809 14.2819 12.8882 15.9998 12.8882C17.7178 12.8882 19.1108 14.2812 19.1108 15.9991C19.1108 17.7175 17.7182 19.1101 15.9998 19.1101ZM22.102 11.0169C22.102 11.6355 21.6006 12.1369 20.9821 12.1369C20.3636 12.1369 19.8621 11.6355 19.8621 11.0169C19.8621 10.3984 20.3636 9.89695 20.9821 9.89695C21.6006 9.89695 22.102 10.3984 22.102 11.0169Z" fill="white"/>
</g>
<defs>
<linearGradient id="paint0_linear_1_26924" x1="28.5403" y1="3.77093" x2="3.36279" y2="28.3236" gradientUnits="userSpaceOnUse">
<stop stop-color="#BA00B2"/>
<stop offset="0.5" stop-color="#F40000"/>
<stop offset="1" stop-color="#FFA800"/>
</linearGradient>
<clipPath id="clip0_1_26924">
<rect width="32" height="32" fill="white"/>
</clipPath>
</defs>
</svg>
