<svg width="51" height="21" viewBox="0 0 51 21" fill="none" xmlns="http://www.w3.org/2000/svg">
<rect width="51" height="21" rx="4" fill="#3B007D"/>
<g clip-path="url(#clip0_1_26457)">
<path d="M10.5386 6.98926L7.77734 15H6.10791L9.58643 5.75781H10.6528L10.5386 6.98926ZM12.8491 15L10.0815 6.98926L9.96094 5.75781H11.0337L14.5249 15H12.8491ZM12.7158 11.5723V12.8354H7.68848V11.5723H12.7158ZM16.9497 5.25V15H15.4136V5.25H16.9497ZM21.2153 8.13184L18.2256 11.4453L16.5879 13.1211L16.188 11.8262L17.4258 10.2964L19.3682 8.13184H21.2153ZM19.6982 15L17.4702 11.7754L18.4351 10.7026L21.4692 15H19.6982ZM26.0396 13.1401C26.0396 12.9878 26.0015 12.8503 25.9253 12.7275C25.8491 12.6006 25.7031 12.4863 25.4873 12.3848C25.2757 12.2832 24.9626 12.1901 24.5479 12.1055C24.1839 12.0251 23.8496 11.9299 23.5449 11.8198C23.2445 11.7056 22.9863 11.568 22.7705 11.4072C22.5547 11.2464 22.3875 11.056 22.269 10.8359C22.1506 10.6159 22.0913 10.362 22.0913 10.0742C22.0913 9.79492 22.1527 9.53044 22.2754 9.28076C22.3981 9.03109 22.5737 8.81104 22.8022 8.62061C23.0308 8.43018 23.3079 8.27995 23.6338 8.16992C23.9639 8.0599 24.332 8.00488 24.7383 8.00488C25.3138 8.00488 25.8068 8.10221 26.2173 8.29688C26.632 8.4873 26.9494 8.74756 27.1694 9.07764C27.3895 9.40348 27.4995 9.77165 27.4995 10.1821H25.9697C25.9697 10.0002 25.9232 9.83089 25.8301 9.67432C25.7412 9.51351 25.6058 9.38444 25.4238 9.28711C25.2419 9.18555 25.0133 9.13477 24.7383 9.13477C24.4759 9.13477 24.258 9.17708 24.0845 9.26172C23.9152 9.34212 23.7882 9.44792 23.7036 9.5791C23.6232 9.71029 23.583 9.85417 23.583 10.0107C23.583 10.125 23.6042 10.2287 23.6465 10.3218C23.693 10.4106 23.7692 10.4932 23.875 10.5693C23.9808 10.6413 24.1247 10.709 24.3066 10.7725C24.4928 10.8359 24.7256 10.8973 25.0049 10.9565C25.5296 11.0666 25.9803 11.2083 26.3569 11.3818C26.7378 11.5511 27.0298 11.7712 27.2329 12.042C27.436 12.3086 27.5376 12.6471 27.5376 13.0576C27.5376 13.3623 27.472 13.6416 27.3408 13.8955C27.2139 14.1452 27.0277 14.3631 26.7822 14.5493C26.5368 14.7313 26.2427 14.873 25.8999 14.9746C25.5614 15.0762 25.1805 15.127 24.7573 15.127C24.1353 15.127 23.6084 15.0169 23.1768 14.7969C22.7451 14.5726 22.4172 14.2869 22.1929 13.9399C21.9728 13.5887 21.8628 13.2248 21.8628 12.8481H23.3418C23.3587 13.1317 23.437 13.3581 23.5767 13.5273C23.7205 13.6924 23.8983 13.813 24.1099 13.8892C24.3257 13.9611 24.5479 13.9971 24.7764 13.9971C25.0514 13.9971 25.2821 13.9611 25.4683 13.8892C25.6545 13.813 25.7962 13.7114 25.8936 13.5845C25.9909 13.4533 26.0396 13.3052 26.0396 13.1401ZM30.5146 8.13184V15H28.9785V8.13184H30.5146ZM28.877 6.3291C28.877 6.09635 28.9531 5.90381 29.1055 5.75146C29.262 5.59489 29.4779 5.5166 29.7529 5.5166C30.0238 5.5166 30.2375 5.59489 30.394 5.75146C30.5506 5.90381 30.6289 6.09635 30.6289 6.3291C30.6289 6.55762 30.5506 6.74805 30.394 6.90039C30.2375 7.05273 30.0238 7.12891 29.7529 7.12891C29.4779 7.12891 29.262 7.05273 29.1055 6.90039C28.9531 6.74805 28.877 6.55762 28.877 6.3291ZM34.1836 14.251L36.0498 8.13184H37.6875L34.9326 16.0474C34.8691 16.2166 34.7866 16.4007 34.6851 16.5996C34.5835 16.7985 34.4502 16.9868 34.2852 17.1646C34.1243 17.3465 33.9233 17.4925 33.6821 17.6025C33.4409 17.7168 33.1489 17.7739 32.8062 17.7739C32.6707 17.7739 32.5396 17.7612 32.4126 17.7358C32.2899 17.7147 32.1735 17.6914 32.0635 17.666L32.0571 16.498C32.0994 16.5023 32.1502 16.5065 32.2095 16.5107C32.2729 16.515 32.3237 16.5171 32.3618 16.5171C32.6157 16.5171 32.8273 16.4854 32.9966 16.4219C33.1659 16.3626 33.3034 16.2653 33.4092 16.1299C33.5192 15.9945 33.6123 15.8125 33.6885 15.584L34.1836 14.251ZM33.1299 8.13184L34.7612 13.2734L35.0342 14.8857L33.9741 15.1587L31.4795 8.13184H33.1299ZM42.334 13.6226V10.3472C42.334 10.1017 42.2896 9.89014 42.2007 9.7124C42.1118 9.53467 41.9764 9.39714 41.7944 9.2998C41.6167 9.20247 41.3924 9.15381 41.1216 9.15381C40.8719 9.15381 40.6561 9.19613 40.4741 9.28076C40.2922 9.3654 40.1504 9.47965 40.0488 9.62354C39.9473 9.76742 39.8965 9.93034 39.8965 10.1123H38.373C38.373 9.84147 38.4386 9.5791 38.5698 9.3252C38.701 9.07129 38.8914 8.84489 39.1411 8.646C39.3908 8.4471 39.6891 8.29053 40.0361 8.17627C40.3831 8.06201 40.7725 8.00488 41.2041 8.00488C41.7204 8.00488 42.1774 8.09163 42.5752 8.26514C42.9772 8.43864 43.2925 8.70101 43.521 9.05225C43.7537 9.39925 43.8701 9.83512 43.8701 10.3599V13.4131C43.8701 13.7262 43.8913 14.0076 43.9336 14.2573C43.9801 14.5028 44.0457 14.7165 44.1304 14.8984V15H42.5625C42.4906 14.835 42.4334 14.6255 42.3911 14.3716C42.353 14.1134 42.334 13.8638 42.334 13.6226ZM42.5562 10.8232L42.5688 11.769H41.4707C41.1872 11.769 40.9375 11.7965 40.7217 11.8516C40.5059 11.9023 40.326 11.9785 40.1821 12.0801C40.0382 12.1816 39.9303 12.3044 39.8584 12.4482C39.7865 12.5921 39.7505 12.755 39.7505 12.937C39.7505 13.119 39.7928 13.2861 39.8774 13.4385C39.9621 13.5866 40.0848 13.703 40.2456 13.7876C40.4106 13.8722 40.6095 13.9146 40.8423 13.9146C41.1554 13.9146 41.4284 13.8511 41.6611 13.7241C41.8981 13.5929 42.0843 13.4342 42.2197 13.248C42.3551 13.0576 42.4271 12.8778 42.4355 12.7085L42.9307 13.3877C42.8799 13.5612 42.7931 13.7474 42.6704 13.9463C42.5477 14.1452 42.3869 14.3356 42.188 14.5176C41.9933 14.6953 41.7585 14.8413 41.4834 14.9556C41.2126 15.0698 40.8994 15.127 40.5439 15.127C40.0954 15.127 39.6955 15.0381 39.3442 14.8604C38.993 14.6784 38.7179 14.4351 38.519 14.1304C38.3201 13.8215 38.2207 13.4723 38.2207 13.083C38.2207 12.7191 38.2884 12.3975 38.4238 12.1182C38.5635 11.8346 38.7666 11.5977 39.0332 11.4072C39.304 11.2168 39.6341 11.0729 40.0234 10.9756C40.4128 10.874 40.8571 10.8232 41.3564 10.8232H42.5562Z" fill="white"/>
</g>
<defs>
<clipPath id="clip0_1_26457">
<rect width="39" height="21" fill="white" transform="translate(6)"/>
</clipPath>
</defs>
</svg>
