<svg width="32" height="32" viewBox="0 0 32 32" fill="none" xmlns="http://www.w3.org/2000/svg">
<g clip-path="url(#clip0_1_26928)">
<path d="M16 0C29.3333 0 32 2.66667 32 16C32 29.3333 29.3333 32 16 32C2.66667 32 0 29.3333 0 16C0 2.66667 2.66667 0 16 0Z" fill="url(#paint0_linear_1_26928)"/>
<path d="M7.86117 15.8652C12.5255 13.8331 15.6358 12.4933 17.192 11.846C21.6354 9.9979 22.5587 9.67688 23.1605 9.66612C23.2929 9.66393 23.5888 9.69673 23.7805 9.8523C23.9423 9.98364 23.9869 10.161 24.0082 10.2856C24.0295 10.4101 24.0561 10.6938 24.035 10.9154C23.7942 13.4454 22.7523 19.585 22.2223 22.4186C21.998 23.6176 21.5563 24.0196 21.1288 24.059C20.1996 24.1445 19.4941 23.445 18.5942 22.8551C17.186 21.9319 16.3904 21.3573 15.0235 20.4565C13.4438 19.4156 14.4679 18.8434 15.3681 17.9083C15.6037 17.6636 19.6976 13.9399 19.7768 13.6021C19.7867 13.5599 19.7959 13.4024 19.7023 13.3193C19.6088 13.2362 19.4707 13.2646 19.3711 13.2871C19.2298 13.3192 16.9802 14.8061 12.6222 17.7479C11.9836 18.1864 11.4052 18.4001 10.8871 18.3889C10.3158 18.3765 9.21688 18.0658 8.39993 17.8003C7.39789 17.4746 6.60154 17.3024 6.6709 16.7492C6.70701 16.4611 7.10378 16.1664 7.86117 15.8652Z" fill="white"/>
</g>
<defs>
<linearGradient id="paint0_linear_1_26928" x1="16" y1="0" x2="16" y2="31.7625" gradientUnits="userSpaceOnUse">
<stop stop-color="#2AABEE"/>
<stop offset="1" stop-color="#229ED9"/>
</linearGradient>
<clipPath id="clip0_1_26928">
<rect width="32" height="32" fill="white"/>
</clipPath>
</defs>
</svg>
